<?xml version="1.0" encoding="utf-8"?>
<!-- Generator: Adobe Illustrator 22.0.1, SVG Export Plug-In . SVG Version: 6.00 Build 0)  -->
<svg version="1.1" id="Calque_1" xmlns="http://www.w3.org/2000/svg" xmlns:xlink="http://www.w3.org/1999/xlink" x="0px" y="0px"
	 viewBox="0 0 44 44" style="enable-background:new 0 0 44 44;" xml:space="preserve">
<style type="text/css">
	.st0{fill:#CECECE;}
</style>
<title>social-facebook@1x</title>
<g id="Layer_2">
	<g id="Web">
		<g id="Facebook_Circle_2x.png">
			<path class="st0" d="M24,17.3c0-0.8,0.1-1.2,1.3-1.2H27v-3h-2.7c-3.2,0-4.3,1.5-4.3,4v2h-2v3h2v9h4v-9h2.7l0.3-3h-3V17.3z M22,0
				C9.8,0,0,9.8,0,22s9.8,22,22,22s22-9.8,22-22S34.2,0,22,0z M22,42C11,42,2,33,2,22S11,2,22,2s20,9,20,20S33,42,22,42z"/>
		</g>
	</g>
</g>
</svg>
