<?xml version="1.0" encoding="utf-8"?>
<!-- Generator: Adobe Illustrator 22.0.1, SVG Export Plug-In . SVG Version: 6.00 Build 0)  -->
<svg version="1.1" id="Calque_1" xmlns="http://www.w3.org/2000/svg" xmlns:xlink="http://www.w3.org/1999/xlink" x="0px" y="0px"
	 viewBox="0 0 44 44" style="enable-background:new 0 0 44 44;" xml:space="preserve">
<style type="text/css">
	.st0{fill:#CECECE;}
</style>
<title>social-instagram@1x</title>
<g id="Layer_2">
	<g id="Web">
		<g id="Instagram_Circle_2x.png">
			<path class="st0" d="M28,12H16c-2.2,0-4,1.8-4,4v12c0,2.2,1.8,4,4,4h12c2.2,0,4-1.8,4-4V16C32,13.8,30.2,12,28,12z M26,15h3v3h-3
				V15z M22,18c2.2,0,4,1.8,4,4s-1.8,4-4,4s-4-1.8-4-4S19.8,18,22,18z M30,28c0,1.1-0.9,2-2,2H16c-1.1,0-2-0.9-2-2v-7h2.1
				c-0.6,3.3,1.6,6.4,4.8,7s6.4-1.6,7-4.8C28,22.8,28,22.4,28,22c0-0.3,0-0.7-0.1-1H30V28z M22,0C9.8,0,0,9.8,0,22s9.8,22,22,22
				s22-9.8,22-22S34.2,0,22,0z M22,42C11,42,2,33,2,22S11,2,22,2s20,9,20,20S33,42,22,42z"/>
		</g>
	</g>
</g>
</svg>
