<?xml version="1.0" encoding="utf-8"?>
<!-- Generator: Adobe Illustrator 22.0.1, SVG Export Plug-In . SVG Version: 6.00 Build 0)  -->
<svg version="1.1" id="Calque_1" xmlns="http://www.w3.org/2000/svg" xmlns:xlink="http://www.w3.org/1999/xlink" x="0px" y="0px"
	 viewBox="0 0 44 44" style="enable-background:new 0 0 44 44;" xml:space="preserve">
<style type="text/css">
	.st0{fill:#CECECE;}
</style>
<title>social-pinterest@1x</title>
<g id="Layer_2">
	<g id="Web">
		<g id="Pinterest_Circle_2x.png">
			<path class="st0" d="M21.7,13l-1.3,0.2c-0.8,0.2-1.6,0.4-2.3,0.8c-1.7,0.9-3,2.3-3.7,4.1c-0.1,0.3-0.2,0.7-0.2,1
				c-0.6,2,0.2,4.1,1.8,5.4c0.3,0.1,0.8,0.4,1,0.1c0.1-0.2,0.1-0.5,0.2-0.7c0.1-0.2,0.2-0.4,0.2-0.6c-0.1-0.3-0.4-0.5-0.6-0.8
				c-0.2-0.5-0.4-1.1-0.5-1.7v-0.3c0.1-2.5,1.8-4.6,4.2-5.1c0.7-0.2,1.5-0.3,2.3-0.2l1.1,0.2c1.3,0.3,2.3,1.2,2.9,2.4
				c0.3,1,0.4,2.1,0.2,3.2c-0.1,0.5-0.1,0.9-0.2,1.3c-0.5,1.5-1.3,3-3,3.4c-0.9,0.2-1.9-0.2-2.2-1.1c-0.1-0.3-0.2-0.6-0.1-0.9
				c0.3-1.3,0.7-2.4,1-3.6c0.3-0.9-0.1-2-1.1-2.3c0,0-0.1,0-0.1,0c-1.2-0.3-2,0.8-2.4,1.5c-0.3,0.7-0.4,1.6-0.2,2.3
				c0.2,0.3,0.3,0.7,0.4,1.1c-0.2,1-0.5,2-0.8,3s-0.4,2-0.7,3c-0.1,0.4-0.1,0.9-0.2,1.4v0.7c-0.1,0.5,0,1.1,0.1,1.6
				c0.1,0.3,0,0.6,0.1,0.8c0,0.1,0,0.2,0.1,0.3c0.4,0,1-1.1,1.2-1.4c0.4-0.6,0.7-1.3,1-2c0.3-0.6,0.3-1.3,0.5-2
				c0.2-0.6,0.4-1.1,0.4-1.7l0,0c0.1,0.3,0.3,0.5,0.6,0.7c1,0.7,2.2,0.9,3.3,0.7c1.4-0.3,2.7-1,3.5-2.1c0.6-0.8,1.1-1.7,1.4-2.7
				c0.2-0.5,0.2-1.1,0.3-1.6c0.2-1.3,0-2.6-0.5-3.8C28.2,14.5,25.7,12.9,21.7,13z M22,0C9.8,0,0,9.8,0,22s9.8,22,22,22s22-9.8,22-22
				S34.2,0,22,0z M22,42C11,42,2,33,2,22S11,2,22,2s20,9,20,20S33,42,22,42z"/>
		</g>
	</g>
</g>
</svg>
