<?xml version="1.0" encoding="utf-8"?>
<!-- Generator: Adobe Illustrator 22.0.1, SVG Export Plug-In . SVG Version: 6.00 Build 0)  -->
<svg version="1.1" id="Calque_1" xmlns="http://www.w3.org/2000/svg" xmlns:xlink="http://www.w3.org/1999/xlink" x="0px" y="0px"
	 viewBox="0 0 44 44" style="enable-background:new 0 0 44 44;" xml:space="preserve">
<style type="text/css">
	.st0{fill:#CECECE;}
</style>
<title>social-twitter@1x</title>
<g id="Layer_2">
	<g id="Web">
		<g id="Twitter_Circle_2x.png">
			<path class="st0" d="M32.5,14.3c-0.8,0.5-1.7,0.8-2.6,1c-0.8-0.8-1.9-1.3-3-1.3c-2.2,0-4.1,1.8-4.1,4c0,0.3,0,0.6,0.1,0.9
				c-3.3-0.2-6.4-1.7-8.5-4.2c-0.4,0.6-0.6,1.3-0.6,2c0,1.4,0.7,2.6,1.8,3.4c-0.7,0-1.3-0.2-1.9-0.5c0,0,0,0,0,0c0,2,1.4,3.6,3.3,4
				c-0.6,0.2-1.2,0.2-1.9,0.1c0.6,1.7,2.1,2.8,3.8,2.8c-1.5,1.1-3.2,1.7-5.1,1.8c-0.3,0-0.7,0-1-0.1c1.9,1.2,4.1,1.8,6.3,1.8
				c6.4,0.1,11.6-4.9,11.7-11.3c0-0.1,0-0.1,0-0.2c0-0.2,0-0.3,0-0.5c0.8-0.6,1.5-1.3,2-2.1c-0.8,0.3-1.5,0.5-2.4,0.6
				C31.5,16,32.1,15.2,32.5,14.3z M22,0C9.8,0,0,9.8,0,22s9.8,22,22,22s22-9.8,22-22S34.2,0,22,0z M22,42C11,42,2,33,2,22S11,2,22,2
				s20,9,20,20S33,42,22,42z"/>
		</g>
	</g>
</g>
</svg>
